<?xml version="1.0" encoding="UTF-8"?>
<svg version="1.1" xmlns="http://www.w3.org/2000/svg" width="1174" height="1116">
<path d="M0 0 C11.06736746 9.27754097 16.13347482 21.13498747 17.54821777 35.37619019 C17.89409512 41.08971364 17.83985774 46.79878921 17.7578125 52.51953125 C17.7470871 53.85936066 17.7470871 53.85936066 17.73614502 55.22625732 C17.59876508 71.85512303 16.54088866 88.27940415 14.5892334 104.7923584 C14.30847696 107.18280256 14.036961 109.57417915 13.76660156 111.96582031 C9.52509294 149.18580818 3.3652742 186.12275672 -2.6796875 223.08203125 C-3.06825285 225.46092832 -3.45676498 227.83983407 -3.84521484 230.21875 C-4.11438469 231.86650421 -4.11438469 231.86650421 -4.38899231 233.54754639 C-4.73018386 235.63643185 -5.07124327 237.7253389 -5.41215515 239.81427002 C-6.15761594 244.380509 -6.90564219 248.9462724 -7.66186523 253.51074219 C-9.62388303 265.38464714 -10.88656265 276.77203167 -10.91992188 288.82861328 C-10.92963705 290.94603646 -10.96075613 293.06249033 -10.9921875 295.1796875 C-11.07761268 306.08053135 -10.25951639 317.51446262 -2.6796875 326.08203125 C1.53573267 328.72207879 5.48873824 328.68882237 10.3203125 328.08203125 C28.44137359 323.01159126 42.83683075 308.93932862 54.28564453 294.62475586 C59.77798042 287.76085523 65.65798163 281.53237947 71.9453125 275.39453125 C79.00128222 268.5424714 79.00128222 268.5424714 85.625 261.28125 C91.52743249 254.38522689 98.19130468 248.15890222 104.64111328 241.78173828 C113.30330383 233.21577153 113.30330383 233.21577153 121.45507812 224.16992188 C126.51895921 218.50155656 132.08930844 213.26736287 137.49560547 207.92724609 C144.87097431 200.70609875 144.87097431 200.70609875 151.8203125 193.08203125 C157.29748292 186.65521712 163.49211392 180.85724693 169.49560547 174.92724609 C174.99578999 169.48837193 180.43013861 164.06541905 185.45117188 158.17382812 C190.33811681 152.70473928 195.70472182 147.65135295 200.92285156 142.5 C206.31231971 137.17331535 211.63464116 131.85291464 216.5625 126.08886719 C227.70187128 113.37141831 239.57422592 101.4634995 254.3203125 93.08203125 C255.73860035 92.24012066 257.15655497 91.39764852 258.57421875 90.5546875 C279.13481447 78.54542534 303.14823351 66.99080826 327.5546875 71.70703125 C335.67644274 74.2198395 341.52390592 79.41746298 345.6328125 86.83203125 C349.88231387 96.83764043 350.79782865 106.68144512 350.6953125 117.45703125 C350.70691406 118.66875 350.71851563 119.88046875 350.73046875 121.12890625 C350.65293183 145.37211764 339.88387902 164.53170933 328.3203125 185.08203125 C327.85367188 185.92459473 327.38703125 186.7671582 326.90625 187.63525391 C316.73386248 205.93885909 304.73197923 223.1245442 293.06904602 240.4932251 C286.00580813 251.02254918 279.03679015 261.61354869 272.0703125 272.20703125 C264.54375902 283.64817222 257.00624134 295.08017693 249.3828125 306.45703125 C231.94779821 332.54325116 215.96453384 359.33015933 201.3203125 387.08203125 C200.97599182 387.73437744 200.63167114 388.38672363 200.2769165 389.05883789 C197.9894924 393.39707793 195.7150114 397.74185671 193.45278931 402.09329224 C192.710237 403.52022769 191.96565746 404.94611044 191.21884155 406.37081909 C179.90070517 427.34983221 179.90070517 427.34983221 179.0078125 450.58203125 C180.10568692 453.20723633 180.10568692 453.20723633 182.4453125 454.33203125 C183.3940625 454.57953125 184.3428125 454.82703125 185.3203125 455.08203125 C186.5371875 455.45328125 187.7540625 455.82453125 189.0078125 456.20703125 C222.21745271 463.90871033 264.18407626 437.36466396 291.52246094 421.09594727 C337.69079346 393.6619075 386.44446028 367.48665919 437.5078125 350.39453125 C438.69383057 349.99645264 439.87984863 349.59837402 441.10180664 349.18823242 C452.53873327 345.48116885 464.08181017 342.85638304 476.0703125 341.83203125 C477.00496338 341.75194824 477.93961426 341.67186523 478.90258789 341.58935547 C494.90187228 340.37463273 513.97317152 340.28956096 527.390625 350.390625 C534.45646694 356.58396419 538.54316051 362.34023773 539.6328125 371.79296875 C540.6280886 394.99534286 525.944279 416.73563753 510.9453125 433.26953125 C506.55027042 437.9935321 501.8375228 442.31726459 497.03515625 446.62109375 C490.88620868 452.25132827 485.09207307 458.26933672 479.23706055 464.20263672 C474.62965284 468.85225407 469.98359876 473.35071878 465.00976562 477.60644531 C462.77244733 479.56054239 460.73843961 481.67746084 458.6953125 483.83203125 C453.20808762 489.38668747 447.17878697 494.04610087 440.99707031 498.78564453 C433.866201 504.29888216 427.01655712 510.16981069 420.1472168 516.00268555 C415.93008242 519.57906931 411.66683548 523.0946047 407.37890625 526.5859375 C404.34721979 529.06007243 401.32660919 531.54712308 398.30834961 534.03759766 C395.36849883 536.46245493 392.42508567 538.88296802 389.48144531 541.30322266 C388.09154364 542.44723798 386.70277656 543.59263391 385.31542969 544.73974609 C375.0719779 553.20721945 364.55477032 561.24880129 353.88476562 569.17041016 C351.34921288 571.06048803 348.82519304 572.964914 346.3046875 574.875 C335.69151595 582.90998902 324.92250338 590.67130295 313.97558594 598.24462891 C306.29493725 603.55950221 298.63273525 608.90109615 290.96826172 614.23925781 C289.30942552 615.393683 287.64972971 616.54687503 285.98876953 617.69824219 C269.95334435 628.81777681 254.22005346 640.47110592 239.3203125 653.08203125 C238.78921875 653.5296582 238.258125 653.97728516 237.7109375 654.43847656 C230.88329571 660.20122152 224.18278685 666.07022659 217.64208984 672.15673828 C214.53366245 675.02978824 211.3297717 677.71072127 208.0078125 680.33203125 C192.32535044 693.04140716 178.81099905 707.60997159 172.3203125 727.08203125 C171.67886546 734.76888022 171.38805653 741.81312054 176.3203125 748.08203125 C192.27933493 765.79553395 219.78685744 769.23790225 242.32421875 771.10546875 C243.36599274 771.19184097 244.40776672 771.2782132 245.48110962 771.36720276 C255.97284403 772.19612825 266.46660194 772.58256727 276.98379517 772.91519165 C385.45439096 776.43931354 385.45439096 776.43931354 420.0078125 808.58203125 C420.7709375 809.40703125 421.5340625 810.23203125 422.3203125 811.08203125 C422.88492187 811.67628906 423.44953125 812.27054688 424.03125 812.8828125 C431.94088373 821.47661286 434.73268947 829.07159819 434.58984375 840.70703125 C433.52425387 854.0500698 423.47786643 864.99440221 413.734375 873.33984375 C393.48276818 889.93932834 368.16288502 900.50088599 343.3203125 908.08203125 C342.31790527 908.38834473 341.31549805 908.6946582 340.28271484 909.01025391 C303.63840906 920.03867534 266.32520891 924.38857927 228.3203125 927.33203125 C227.06926601 927.4299251 227.06926601 927.4299251 225.79294586 927.5297966 C114.68820882 936.20466336 114.68820882 936.20466336 72.3203125 922.08203125 C71.96066406 923.07976562 71.96066406 923.07976562 71.59375 924.09765625 C62.83661513 944.62051221 47.44366917 963.29815041 32.5625 979.62109375 C31.07712189 981.2513868 29.60294522 982.89196205 28.140625 984.54296875 C20.72302767 992.91086324 12.9892279 1000.89733692 4.46875 1008.1484375 C1.70046281 1010.63989597 -0.88547201 1013.29957577 -3.4921875 1015.95703125 C-8.90839895 1021.42960024 -14.57583918 1026.38152306 -20.6796875 1031.08203125 C-21.3809375 1031.62730469 -22.0821875 1032.17257812 -22.8046875 1032.734375 C-77.45031357 1075.0847352 -142.19616067 1099.75956103 -210.6796875 1108.08203125 C-212.1335083 1108.25992187 -212.1335083 1108.25992187 -213.61669922 1108.44140625 C-306.73819331 1119.19912398 -403.80037123 1094.52282154 -490.5 1033.64794922 C-497.25564609 1028.16656036 -503.65819765 1022.30250164 -510.0625 1016.41796875 C-512.55938449 1014.18940617 -515.11417182 1012.09083333 -517.7421875 1010.01953125 C-530.09414315 1000.25875873 -540.54684451 989.14830201 -550.37890625 976.90625 C-552.41157353 974.41114228 -554.49977395 971.97636762 -556.61328125 969.54980469 C-573.9242235 949.55395001 -586.85501344 926.6189693 -598.6796875 903.08203125 C-599.05722168 902.33630859 -599.43475586 901.59058594 -599.82373047 900.82226562 C-641.02384278 818.84778194 -646.04585692 719.59652349 -617.6171875 632.61328125 C-599.91579453 580.74715812 -569.07052567 534.57603149 -531.9296875 494.64453125 C-531.32801758 493.99436035 -530.72634766 493.34418945 -530.10644531 492.67431641 C-525.87337998 488.16930729 -521.38325706 484.08861732 -516.6796875 480.08203125 C-515.71546875 479.23640625 -514.75125 478.39078125 -513.7578125 477.51953125 C-488.15935567 455.45677288 -460.14183318 437.6584966 -430.3046875 421.95703125 C-428.7266333 421.12171875 -428.7266333 421.12171875 -427.11669922 420.26953125 C-425.62033936 419.49222656 -425.62033936 419.49222656 -424.09375 418.69921875 C-423.2167041 418.24144043 -422.3396582 417.78366211 -421.43603516 417.31201172 C-418.25319428 415.89171479 -415.03462594 415.01270569 -411.6796875 414.08203125 C-411.68412872 413.09042496 -411.68856995 412.09881866 -411.69314575 411.0771637 C-411.73432845 401.56611337 -411.76396878 392.05508193 -411.78331184 382.54396152 C-411.79359162 377.65841925 -411.80744693 372.7729509 -411.83056641 367.88745117 C-411.96674037 338.28706108 -411.68052105 308.74456765 -407.9296875 279.33203125 C-407.84731842 278.67188019 -407.76494934 278.01172913 -407.68008423 277.33157349 C-401.57976726 228.89367243 -386.05638796 180.40552863 -359.6796875 139.08203125 C-358.97875977 137.9832666 -358.97875977 137.9832666 -358.26367188 136.86230469 C-349.10200986 122.73549296 -337.50589757 106.63065492 -320.66796875 101.46484375 C-312.94566006 99.97803383 -306.36901309 100.95281793 -299.6796875 105.08203125 C-284.62963061 115.49928802 -277.32601581 133.77177781 -274.02723312 151.10094833 C-272.9395639 157.30089092 -272.30413333 163.56292258 -271.65234375 169.8203125 C-271.56844957 170.60662867 -271.4845554 171.39294483 -271.39811897 172.20308876 C-269.18717969 193.08310918 -268.1015002 214.03029063 -266.97033691 234.99066162 C-266.67907483 240.37299727 -266.37951811 245.75475418 -266.06947517 251.13604164 C-265.93144917 253.58685924 -265.80498824 256.0380716 -265.67930603 258.48954773 C-265.24885776 266.32049142 -264.51790138 274.01694674 -263.24243164 281.7590332 C-263.12316283 282.48332362 -263.00389402 283.20761404 -262.88101101 283.95385265 C-260.99642451 294.66869771 -257.8249275 305.42620481 -249.6796875 313.08203125 C-245.33813922 316.07287562 -240.86273357 316.70757129 -235.6796875 316.08203125 C-230.206023 314.21274127 -225.32877176 311.51831092 -220.6796875 308.08203125 C-220.16148437 307.70949219 -219.64328125 307.33695312 -219.109375 306.953125 C-208.00117874 298.29906513 -201.15901189 285.27694689 -194.6796875 273.08203125 C-193.88062973 271.60393878 -193.0811421 270.12607863 -192.28125 268.6484375 C-185.65940444 256.32649255 -179.62433574 243.74153902 -173.6796875 231.08203125 C-173.15391113 229.9645752 -172.62813477 228.84711914 -172.08642578 227.69580078 C-163.50913796 209.44910961 -155.09917321 191.12714188 -146.73547363 172.78173828 C-144.37302645 167.60014374 -142.0062756 162.42053438 -139.63671875 157.2421875 C-139.30452835 156.51613312 -138.97233795 155.79007874 -138.63008118 155.04202271 C-137.29074419 152.11469168 -135.95140071 149.18736366 -134.61184692 146.26013184 C-131.03878465 138.45097375 -127.4740921 130.63825105 -123.9375 122.8125 C-114.73831534 102.46379978 -105.34563911 82.21359896 -95.6796875 62.08203125 C-95.16607666 61.010065 -95.16607666 61.010065 -94.64208984 59.91644287 C-92.65316609 55.76880055 -90.64828771 51.62954924 -88.61987305 47.50106812 C-88.00782659 46.25180438 -87.39970513 45.00060751 -86.79614258 43.7472229 C-76.52689495 22.46648258 -60.37525116 4.16563913 -37.86328125 -4.26171875 C-25.54023735 -7.96524536 -10.65050255 -7.62302734 0 0 Z M-381.2421875 523.08203125 C-386.40195955 525.84320068 -391.5757982 528.55046249 -396.83447266 531.11865234 C-415.59385008 540.29145325 -431.63643585 551.57651871 -446.6796875 566.08203125 C-447.28635254 566.66678223 -447.89301758 567.2515332 -448.51806641 567.85400391 C-456.43513587 575.53085888 -463.99127951 583.28913323 -470.6796875 592.08203125 C-471.09105957 592.6116748 -471.50243164 593.14131836 -471.92626953 593.68701172 C-508.67682512 641.12418835 -525.08064569 699.75131512 -517.78686523 759.35083008 C-509.79781988 817.64410362 -477.59478288 873.37934861 -430.6796875 909.08203125 C-430.05529785 909.5610791 -429.4309082 910.04012695 -428.78759766 910.53369141 C-375.9388193 950.8131662 -308.67766431 968.13023507 -242.7421875 959.89453125 C-239.03881988 959.36802378 -235.35989205 958.75044166 -231.6796875 958.08203125 C-230.73706055 957.91574219 -229.79443359 957.74945312 -228.82324219 957.578125 C-176.38019959 948.04623574 -117.3851529 916.92704617 -85.4921875 873.07421875 C-83.34437813 869.69848763 -83.34437813 869.69848763 -81.6796875 866.08203125 C-82.88149567 862.47660675 -83.52072904 862.34109129 -86.78125 860.65625 C-87.65193115 860.19702148 -88.5226123 859.73779297 -89.41967773 859.26464844 C-90.37173096 858.77125977 -91.32378418 858.27787109 -92.3046875 857.76953125 C-111.77928011 847.39029408 -130.10019367 835.65800748 -148.09667969 822.90380859 C-151.78675635 820.30122333 -155.51288284 817.75291057 -159.2421875 815.20703125 C-179.39728062 801.38420916 -199.2790706 786.86170429 -217.2734375 770.27734375 C-218.61230618 769.05584343 -219.95936559 767.84262516 -221.33618164 766.6640625 C-227.00978496 761.80201001 -232.33486589 756.61301718 -237.61547852 751.33154297 C-239.10610365 749.84309888 -240.60455767 748.36285848 -242.10351562 746.8828125 C-247.67740031 741.34063514 -252.85414952 735.65407165 -257.74511719 729.48413086 C-259.58288846 727.2022238 -261.49999694 725.04177632 -263.4921875 722.89453125 C-283.21603388 700.90537182 -299.2223197 674.7236547 -313.6796875 649.08203125 C-314.24751953 648.08316895 -314.81535156 647.08430664 -315.40039062 646.05517578 C-338.09380687 606.05044495 -361.12766289 563.83518721 -372.6796875 519.08203125 C-375.41243493 519.08203125 -378.80148369 521.76899103 -381.2421875 523.08203125 Z " fill="#5B5B5B" transform="translate(634.6796875,5.91796875)"/>
<path d="M0 0 C11.06736746 9.27754097 16.13347482 21.13498747 17.54821777 35.37619019 C17.89409512 41.08971364 17.83985774 46.79878921 17.7578125 52.51953125 C17.75066223 53.41275085 17.74351196 54.30597046 17.73614502 55.22625732 C17.59876508 71.85512303 16.54088866 88.27940415 14.5892334 104.7923584 C14.30847696 107.18280256 14.036961 109.57417915 13.76660156 111.96582031 C9.52509294 149.18580818 3.3652742 186.12275672 -2.6796875 223.08203125 C-3.06825285 225.46092832 -3.45676498 227.83983407 -3.84521484 230.21875 C-4.11438469 231.86650421 -4.11438469 231.86650421 -4.38899231 233.54754639 C-4.73018386 235.63643185 -5.07124327 237.7253389 -5.41215515 239.81427002 C-6.15761594 244.380509 -6.90564219 248.9462724 -7.66186523 253.51074219 C-9.62388303 265.38464714 -10.88656265 276.77203167 -10.91992188 288.82861328 C-10.92963705 290.94603646 -10.96075613 293.06249033 -10.9921875 295.1796875 C-11.07761268 306.08053135 -10.25951639 317.51446262 -2.6796875 326.08203125 C1.53573267 328.72207879 5.48873824 328.68882237 10.3203125 328.08203125 C28.44137359 323.01159126 42.83683075 308.93932862 54.28564453 294.62475586 C59.77798042 287.76085523 65.65798163 281.53237947 71.9453125 275.39453125 C79.00128222 268.5424714 79.00128222 268.5424714 85.625 261.28125 C91.52743249 254.38522689 98.19130468 248.15890222 104.64111328 241.78173828 C113.30330383 233.21577153 113.30330383 233.21577153 121.45507812 224.16992188 C126.51895921 218.50155656 132.08930844 213.26736287 137.49560547 207.92724609 C144.87097431 200.70609875 144.87097431 200.70609875 151.8203125 193.08203125 C157.29748292 186.65521712 163.49211392 180.85724693 169.49560547 174.92724609 C174.99578999 169.48837193 180.43013861 164.06541905 185.45117188 158.17382812 C190.33811681 152.70473928 195.70472182 147.65135295 200.92285156 142.5 C206.31231971 137.17331535 211.63464116 131.85291464 216.5625 126.08886719 C227.70187128 113.37141831 239.57422592 101.4634995 254.3203125 93.08203125 C255.73860035 92.24012066 257.15655497 91.39764852 258.57421875 90.5546875 C279.13481447 78.54542534 303.14823351 66.99080826 327.5546875 71.70703125 C335.67644274 74.2198395 341.52390592 79.41746298 345.6328125 86.83203125 C349.88231387 96.83764043 350.79782865 106.68144512 350.6953125 117.45703125 C350.70691406 118.66875 350.71851563 119.88046875 350.73046875 121.12890625 C350.65293183 145.37211764 339.88387902 164.53170933 328.3203125 185.08203125 C327.85367188 185.92459473 327.38703125 186.7671582 326.90625 187.63525391 C316.73386248 205.93885909 304.73197923 223.1245442 293.06904602 240.4932251 C286.00580813 251.02254918 279.03679015 261.61354869 272.0703125 272.20703125 C264.54375902 283.64817222 257.00624134 295.08017693 249.3828125 306.45703125 C231.94779821 332.54325116 215.96453384 359.33015933 201.3203125 387.08203125 C200.97599182 387.73437744 200.63167114 388.38672363 200.2769165 389.05883789 C197.9894924 393.39707793 195.7150114 397.74185671 193.45278931 402.09329224 C192.710237 403.52022769 191.96565746 404.94611044 191.21884155 406.37081909 C179.90070517 427.34983221 179.90070517 427.34983221 179.0078125 450.58203125 C180.10568692 453.20723633 180.10568692 453.20723633 182.4453125 454.33203125 C183.3940625 454.57953125 184.3428125 454.82703125 185.3203125 455.08203125 C186.5371875 455.45328125 187.7540625 455.82453125 189.0078125 456.20703125 C222.21745271 463.90871033 264.18407626 437.36466396 291.52246094 421.09594727 C337.69079346 393.6619075 386.44446028 367.48665919 437.5078125 350.39453125 C438.69383057 349.99645264 439.87984863 349.59837402 441.10180664 349.18823242 C452.53873327 345.48116885 464.08181017 342.85638304 476.0703125 341.83203125 C477.00496338 341.75194824 477.93961426 341.67186523 478.90258789 341.58935547 C494.90187228 340.37463273 513.97317152 340.28956096 527.390625 350.390625 C534.45646694 356.58396419 538.54316051 362.34023773 539.6328125 371.79296875 C540.6280886 394.99534286 525.944279 416.73563753 510.9453125 433.26953125 C506.55027042 437.9935321 501.8375228 442.31726459 497.03515625 446.62109375 C490.88620868 452.25132827 485.09207307 458.26933672 479.23706055 464.20263672 C474.62965284 468.85225407 469.98359876 473.35071878 465.00976562 477.60644531 C462.77244733 479.56054239 460.73843961 481.67746084 458.6953125 483.83203125 C453.20808762 489.38668747 447.17878697 494.04610087 440.99707031 498.78564453 C433.866201 504.29888216 427.01655712 510.16981069 420.1472168 516.00268555 C415.93008242 519.57906931 411.66683548 523.0946047 407.37890625 526.5859375 C404.34721979 529.06007243 401.32660919 531.54712308 398.30834961 534.03759766 C395.36849883 536.46245493 392.42508567 538.88296802 389.48144531 541.30322266 C388.09154364 542.44723798 386.70277656 543.59263391 385.31542969 544.73974609 C375.0719779 553.20721945 364.55477032 561.24880129 353.88476562 569.17041016 C351.34921288 571.06048803 348.82519304 572.964914 346.3046875 574.875 C335.69151595 582.90998902 324.92250338 590.67130295 313.97558594 598.24462891 C306.29493725 603.55950221 298.63273525 608.90109615 290.96826172 614.23925781 C289.30942552 615.393683 287.64972971 616.54687503 285.98876953 617.69824219 C269.95334435 628.81777681 254.22005346 640.47110592 239.3203125 653.08203125 C238.78921875 653.5296582 238.258125 653.97728516 237.7109375 654.43847656 C230.88329571 660.20122152 224.18278685 666.07022659 217.64208984 672.15673828 C214.53366245 675.02978824 211.3297717 677.71072127 208.0078125 680.33203125 C192.32535044 693.04140716 178.81099905 707.60997159 172.3203125 727.08203125 C171.67886546 734.76888022 171.38805653 741.81312054 176.3203125 748.08203125 C192.27933493 765.79553395 219.78685744 769.23790225 242.32421875 771.10546875 C243.36599274 771.19184097 244.40776672 771.2782132 245.48110962 771.36720276 C255.97284403 772.19612825 266.46660194 772.58256727 276.98379517 772.91519165 C385.45439096 776.43931354 385.45439096 776.43931354 420.0078125 808.58203125 C420.7709375 809.40703125 421.5340625 810.23203125 422.3203125 811.08203125 C422.88492188 811.67628906 423.44953125 812.27054688 424.03125 812.8828125 C431.94088373 821.47661286 434.73268947 829.07159819 434.58984375 840.70703125 C433.52425387 854.0500698 423.47786643 864.99440221 413.734375 873.33984375 C393.48276818 889.93932834 368.16288502 900.50088599 343.3203125 908.08203125 C342.31790527 908.38834473 341.31549805 908.6946582 340.28271484 909.01025391 C303.63840906 920.03867534 266.32520891 924.38857927 228.3203125 927.33203125 C227.06926601 927.4299251 227.06926601 927.4299251 225.79294586 927.5297966 C97.06790516 937.58042636 97.06790516 937.58042636 72.3203125 921.08203125 C73.07481689 920.09678467 73.82932129 919.11153809 74.60668945 918.09643555 C77.36849088 914.22031995 79.08735596 910.29399315 80.73828125 905.8515625 C81.03712219 905.07179047 81.33596313 904.29201843 81.64385986 903.48861694 C82.60902883 900.96110769 83.55899527 898.42821948 84.5078125 895.89453125 C85.17603037 894.12978112 85.84473614 892.36521565 86.51391602 890.60083008 C88.46766943 885.43465605 90.39808346 880.26000601 92.3203125 875.08203125 C92.58384521 874.37348999 92.84737793 873.66494873 93.11889648 872.93493652 C102.26445371 848.31771895 110.38543433 823.89810337 114.81933594 797.96533203 C115.30996841 795.14156521 115.84936963 792.33005326 116.390625 789.515625 C118.02831107 780.45464553 118.48015146 771.39649389 118.5234375 762.203125 C118.53040649 761.20099472 118.53737549 760.19886444 118.54455566 759.16636658 C118.5618489 755.95071154 118.56827539 752.73523085 118.5703125 749.51953125 C118.57131958 748.42110901 118.57232666 747.32268677 118.57336426 746.190979 C118.56327259 729.93478645 118.01741202 714.1431883 115.3203125 698.08203125 C115.00372751 696.06252801 114.68732473 694.0429962 114.37109375 692.0234375 C104.6242731 631.6565038 79.41500934 572.38261156 40.3203125 525.08203125 C39.88170898 524.55013184 39.44310547 524.01823242 38.99121094 523.47021484 C29.93889669 512.5296296 20.46084651 502.03559665 10.41894531 491.99536133 C8.9482484 490.52247153 7.48577716 489.0417286 6.0234375 487.56054688 C-0.20925113 481.29115165 -6.75450743 475.58266226 -13.6796875 470.08203125 C-14.81891523 469.12953978 -15.95495416 468.17320383 -17.0859375 467.2109375 C-64.32956202 427.69201741 -123.69730217 402.49331915 -183.72290039 390.67236328 C-185.49949116 390.31766123 -187.27338397 389.94832523 -189.04077148 389.55029297 C-197.82895786 387.60791106 -206.79752915 386.82965619 -215.7421875 385.95703125 C-216.65320221 385.86798523 -217.56421692 385.77893921 -218.50283813 385.68719482 C-270.72749049 380.71233841 -321.86538312 385.66395215 -371.93066406 401.23583984 C-375.960027 402.4761393 -380.00614563 403.65617803 -384.0546875 404.83203125 C-391.61495673 407.04098436 -399.03803651 409.47564724 -406.4375 412.171875 C-407.42121582 412.53015381 -408.40493164 412.88843262 -409.41845703 413.25756836 C-410.16466309 413.52964111 -410.91086914 413.80171387 -411.6796875 414.08203125 C-411.72677183 403.56936096 -411.76193173 393.05671718 -411.78331184 382.54396152 C-411.79359162 377.65841925 -411.80744693 372.7729509 -411.83056641 367.88745117 C-411.96674037 338.28706108 -411.68052105 308.74456765 -407.9296875 279.33203125 C-407.84731842 278.67188019 -407.76494934 278.01172913 -407.68008423 277.33157349 C-401.57976726 228.89367243 -386.05638796 180.40552863 -359.6796875 139.08203125 C-358.97875977 137.9832666 -358.97875977 137.9832666 -358.26367188 136.86230469 C-349.10200986 122.73549296 -337.50589757 106.63065492 -320.66796875 101.46484375 C-312.94566006 99.97803383 -306.36901309 100.95281793 -299.6796875 105.08203125 C-284.62963061 115.49928802 -277.32601581 133.77177781 -274.02723312 151.10094833 C-272.9395639 157.30089092 -272.30413333 163.56292258 -271.65234375 169.8203125 C-271.56844957 170.60662867 -271.4845554 171.39294483 -271.39811897 172.20308876 C-269.18717969 193.08310918 -268.1015002 214.03029063 -266.97033691 234.99066162 C-266.67907483 240.37299727 -266.37951811 245.75475418 -266.06947517 251.13604164 C-265.93144917 253.58685924 -265.80498824 256.0380716 -265.67930603 258.48954773 C-265.24885776 266.32049142 -264.51790138 274.01694674 -263.24243164 281.7590332 C-263.06352843 282.84546883 -263.06352843 282.84546883 -262.88101101 283.95385265 C-260.99642451 294.66869771 -257.8249275 305.42620481 -249.6796875 313.08203125 C-245.33813922 316.07287562 -240.86273357 316.70757129 -235.6796875 316.08203125 C-230.206023 314.21274127 -225.32877176 311.51831092 -220.6796875 308.08203125 C-220.16148437 307.70949219 -219.64328125 307.33695312 -219.109375 306.953125 C-208.00117874 298.29906513 -201.15901189 285.27694689 -194.6796875 273.08203125 C-193.88062973 271.60393878 -193.0811421 270.12607863 -192.28125 268.6484375 C-185.65940444 256.32649255 -179.62433574 243.74153902 -173.6796875 231.08203125 C-173.15391113 229.9645752 -172.62813477 228.84711914 -172.08642578 227.69580078 C-163.50913796 209.44910961 -155.09917321 191.12714188 -146.73547363 172.78173828 C-144.37302645 167.60014374 -142.0062756 162.42053438 -139.63671875 157.2421875 C-139.30452835 156.51613312 -138.97233795 155.79007874 -138.63008118 155.04202271 C-137.29074419 152.11469168 -135.95140071 149.18736366 -134.61184692 146.26013184 C-131.03878465 138.45097375 -127.4740921 130.63825105 -123.9375 122.8125 C-114.73831534 102.46379978 -105.34563911 82.21359896 -95.6796875 62.08203125 C-95.16607666 61.010065 -95.16607666 61.010065 -94.64208984 59.91644287 C-92.65316609 55.76880055 -90.64828771 51.62954924 -88.61987305 47.50106812 C-88.00782659 46.25180438 -87.39970513 45.00060751 -86.79614258 43.7472229 C-76.52689495 22.46648258 -60.37525116 4.16563913 -37.86328125 -4.26171875 C-25.54023735 -7.96524536 -10.65050255 -7.62302734 0 0 Z " fill="#D41100" transform="translate(634.6796875,5.91796875)"/>
<path d="M0 0 C0.53641113 0.43199707 1.07282227 0.86399414 1.62548828 1.30908203 C11.28408772 9.1373262 20.07295639 17.86377049 28.875 26.625 C29.7480629 27.49016235 29.7480629 27.49016235 30.63876343 28.37280273 C37.90989822 35.59304919 44.64318712 42.9523344 51 51 C51.95216966 52.13949671 52.90850539 53.27554072 53.87109375 54.40625 C96.47543496 105.3383983 122.65645727 170.45588085 131 236 C131.0864679 236.65166138 131.17293579 237.30332275 131.26202393 237.97473145 C132.92772934 250.7691953 133.31247105 263.43029416 133.26074219 276.32470703 C133.25001146 279.4966136 133.26071275 282.66795406 133.2734375 285.83984375 C133.2858558 302.44488826 132.22759889 318.70747141 128.875 335 C128.55631958 336.55992676 128.55631958 336.55992676 128.23120117 338.15136719 C120.61531892 373.93612997 106.61292435 408.16410807 93 442 C87.95362753 442.10048846 83.44096655 441.88807374 78.4765625 440.85546875 C77.2302002 440.59668945 75.98383789 440.33791016 74.69970703 440.07128906 C73.34121694 439.77786812 71.98298898 439.48323147 70.625 439.1875 C69.56705231 438.96000061 69.56705231 438.96000061 68.48773193 438.72790527 C-49.54957981 413.23412603 -49.54957981 413.23412603 -62 395 C-61.54724825 391.13588387 -60.24679279 388.24136425 -58.375 384.859375 C-57.56905396 383.39032715 -57.56905396 383.39032715 -56.74682617 381.89160156 C-56.17037354 380.85487305 -55.5939209 379.81814453 -55 378.75 C-53.80830222 376.57307623 -52.61689712 374.39599222 -51.42578125 372.21875 C-49.83291327 369.32310443 -48.2379366 366.42874526 -46.63427734 363.5390625 C-29.3538705 332.34969711 -20.78024064 299.81364665 -20.75 264.1875 C-20.74899292 263.36397034 -20.74798584 262.54044067 -20.74694824 261.69195557 C-20.75685322 249.70314484 -21.20852848 238.05367983 -23.55126953 226.25927734 C-24.00677948 223.96586654 -24.40970784 221.66714958 -24.80859375 219.36328125 C-32.02378333 179.76873832 -51.38840296 142.9127825 -78 113 C-78.44166504 112.49662109 -78.88333008 111.99324219 -79.33837891 111.47460938 C-111.10282316 75.33806016 -153.7277728 51.25617799 -200 39 C-200.85352051 38.77328613 -201.70704102 38.54657227 -202.58642578 38.31298828 C-256.14698085 24.41442602 -305.75840656 34.22353152 -358 48 C-368.68653737 36.50554572 -370.38080485 19.3424928 -373.125 4.5 C-373.46127222 2.71986907 -373.79850821 0.93991993 -374.13671875 -0.83984375 C-374.63227706 -3.44996308 -375.12654496 -6.06027429 -375.61546326 -8.67164612 C-376.58924026 -13.87264432 -377.61011933 -19.06161282 -378.66796875 -24.24609375 C-381.20440184 -36.84450907 -382.36645426 -49.15374225 -382 -62 C-381.22140625 -62.21914063 -380.4428125 -62.43828125 -379.640625 -62.6640625 C-373.33682484 -64.45062337 -367.04822012 -66.27705492 -360.77661133 -68.17382812 C-356.52097958 -69.46009889 -352.26090048 -70.73130959 -348 -72 C-347.2363916 -72.22864746 -346.4727832 -72.45729492 -345.68603516 -72.69287109 C-328.72009833 -77.73619558 -311.5775235 -80.72734202 -294.0625 -83.1875 C-292.28685669 -83.43802124 -292.28685669 -83.43802124 -290.4753418 -83.69360352 C-196.202341 -96.46090264 -97.24138367 -70.34753644 0 0 Z " fill="#FDFDFD" transform="translate(621,475)"/>
<path d="M0 0 C0.52803223 0.43924805 1.05606445 0.87849609 1.60009766 1.33105469 C13.56381326 11.29463402 24.31618937 21.75177285 34 34 C34.65484375 34.78761719 35.3096875 35.57523438 35.984375 36.38671875 C68.37425369 75.57847196 85.21270852 126.22700259 85.25 176.75 C85.25067474 177.57191833 85.25134949 178.39383667 85.25204468 179.24066162 C85.19417328 223.70428701 69.80571386 261.80634317 47.34814453 299.72314453 C46.52313283 301.11649099 45.71703697 302.52153713 44.94482422 303.94482422 C43.3898048 306.64109823 42.22648329 307.89735899 39.37109375 309.19140625 C34.19390537 308.89745233 30.49256032 306.50212729 26.0625 303.9375 C25.09884521 303.39383789 24.13519043 302.85017578 23.14233398 302.29003906 C20.08120123 300.54931239 17.03870736 298.7795503 14 297 C13.04222656 296.4426416 12.08445312 295.8852832 11.09765625 295.31103516 C-2.87691825 287.13284195 -16.21109418 278.18086275 -29.41699219 268.82177734 C-33.10706885 266.21919208 -36.83319534 263.67087932 -40.5625 261.125 C-60.71759312 247.30217791 -80.5993831 232.77967304 -98.59375 216.1953125 C-99.92650765 214.9793875 -101.26733828 213.77156973 -102.63891602 212.59960938 C-108.47584644 207.60361176 -113.93419385 202.25195411 -119.36303711 196.82226562 C-120.92608734 195.26139673 -122.49697365 193.70872112 -124.06835938 192.15625 C-129.77299784 186.48260616 -135.08428956 180.69903366 -140.08300781 174.38452148 C-141.91374946 172.10728592 -143.82569553 169.95377014 -145.8125 167.8125 C-165.53634638 145.82334057 -181.5426322 119.64162345 -196 94 C-196.56783203 93.0011377 -197.13566406 92.00227539 -197.72070312 90.97314453 C-252.80590848 -6.13294073 -252.80590848 -6.13294073 -254.125 -35.8125 C-252.3065102 -39.34845239 -248.59513331 -39.83586389 -245 -41 C-242.14410646 -41.84972845 -239.27074336 -42.6071366 -236.3828125 -43.33984375 C-235.57602051 -43.54703033 -234.76922852 -43.75421692 -233.93798828 -43.96768188 C-231.33545222 -44.63163169 -228.73068035 -45.28600514 -226.125 -45.9375 C-225.23649353 -46.16065887 -224.34798706 -46.38381775 -223.43255615 -46.61373901 C-208.72217445 -50.28827026 -194.08005411 -53.26748334 -179 -55 C-178.17983398 -55.09877441 -177.35966797 -55.19754883 -176.51464844 -55.29931641 C-114.61140511 -62.21704685 -47.42699894 -39.94617062 0 0 Z " fill="#D41100" transform="translate(516,561)"/>
</svg>
